<?xml version="1.0" encoding="utf-8"?>
<!-- Generator: Adobe Illustrator 19.2.1, SVG Export Plug-In . SVG Version: 6.00 Build 0)  -->
<!DOCTYPE svg PUBLIC "-//W3C//DTD SVG 1.1//EN" "http://www.w3.org/Graphics/SVG/1.1/DTD/svg11.dtd">
<svg version="1.1" id="Ebene_1" xmlns="http://www.w3.org/2000/svg" xmlns:xlink="http://www.w3.org/1999/xlink" x="0px" y="0px"
	 viewBox="0 0 134.1387024 71" style="enable-background:new 0 0 134.1387024 71;" xml:space="preserve">
<style type="text/css">
	.st0{fill:#E30613;}
	.st1{opacity:0.8;fill:#5D686E;}
	.st2{opacity:0.6;fill:#5D686E;}
	.st3{fill:#5D686E;}
</style>
<path class="st0" d="M23.3376446,14.0087242H3.6335456c-0.4414001,0-0.7988999,0.3573999-0.7988999,0.7978992v19.7040997
	c0,0.4413986,0.3574998,0.7988014,0.7988999,0.7988014h9.8543997v-8.9775143c0-0.4394875,0.3564997-1.1542873,0.7979002-1.5966873
	l9.0517988-9.0517988c0.4414005-0.4414005,0.8007088-0.4424,0.8007088,0v-0.8769007
	C24.1383533,14.3661242,23.7790451,14.0087242,23.3376446,14.0087242z"/>
<path class="st0" d="M26.7926445,14.0087242h9.8535995V3.1650107c0-0.4404867-0.3614006-0.4404867-0.8008003,0l-9.0527992,9.0537138
	c-0.4413986,0.4413996-0.7987995,1.1561995-0.7987995,1.597599v0.9903002
	C25.993845,14.3661242,26.3512459,14.0087242,26.7926445,14.0087242z"/>
<path class="st1" d="M46.4977455,14.0087242H36.646244v8.8612862c0,0.4395123-0.3614006,1.1563129-0.8008003,1.596714
	l-9.0527992,9.0536995c-0.4413986,0.4413986-0.7987995,0.4413986-0.7987995,0v0.9902992
	c0,0.4413986,0.3574009,0.7988014,0.7987995,0.7988014h19.705101c0.4394989,0,0.7987976-0.3574028,0.7987976-0.7988014V14.8066235
	C47.2965431,14.3661242,46.9372444,14.0087242,46.4977455,14.0087242z"/>
<path class="st0" d="M26.7926445,33.5204239l9.0527992-9.0536995c0.4393997-0.4404011,0.8008003-1.1572018,0.8008003-1.596714
	v-8.8612862h-9.8535995c-0.4413986,0-0.7987995,0.3573999-0.7987995,0.7978992v18.7138004
	C25.993845,33.9618225,26.3512459,33.9618225,26.7926445,33.5204239z"/>
<path class="st2" d="M26.7926445,33.5204239l9.0527992-9.0536995c0.4393997-0.4404011,0.8008003-1.1572018,0.8008003-1.596714
	v-8.8612862h-9.8535995c-0.4413986,0-0.7987995,0.3573999-0.7987995,0.7978992v18.7138004
	C25.993845,33.9618225,26.3512459,33.9618225,26.7926445,33.5204239z"/>
<path class="st1" d="M23.3376446,35.3095245h-9.849699v10.7284851c0,0.4404144,0.3564997,0.4404144,0.7979002,0l9.0517988-9.053688
	c0.4414005-0.4403992,0.8007088-1.1553116,0.8007088-1.5985985v-0.875
	C24.1383533,34.9521217,23.7790451,35.3095245,23.3376446,35.3095245z"/>
<path class="st0" d="M23.3376446,15.6835241l-9.0517988,9.0517988c-0.4414005,0.4424-0.7979002,1.1571999-0.7979002,1.5966873
	v8.9775143h9.849699c0.4414005,0,0.8007088-0.3574028,0.8007088-0.7988014v-18.827198
	C24.1383533,15.2411242,23.7790451,15.2421236,23.3376446,15.6835241z"/>
<path class="st2" d="M23.3376446,15.6835241l-9.0517988,9.0517988c-0.4414005,0.4424-0.7979002,1.1571999-0.7979002,1.5966873
	v8.9775143h9.849699c0.4414005,0,0.8007088-0.3574028,0.8007088-0.7988014v-18.827198
	C24.1383533,15.2411242,23.7790451,15.2421236,23.3376446,15.6835241z"/>
<g>
	<g>
		<path class="st3" d="M61.176445,53.2724228c0,0.2430992-0.0488014,0.4618988-0.1459999,0.6567001
			c-0.0970917,0.1944008-0.2308998,0.3578873-0.4008026,0.4902992c-0.1704979,0.1323013-0.3691978,0.233799-0.596199,0.3036995
			c-0.2270889,0.0703011-0.4673004,0.1054001-0.721199,0.1054001h-1.3779984v-5.4062004h1.4741974
			c0.2103996,0,0.4140015,0.0268021,0.6113014,0.0810013c0.1968002,0.0541992,0.3696098,0.1362991,0.5181007,0.2476006
			c0.1483994,0.1102982,0.2675095,0.2509995,0.3563995,0.4213982c0.0893974,0.1704025,0.1338005,0.3716011,0.1338005,0.6040001
			c0,0.1459999-0.0321999,0.2851028-0.0972023,0.4174995c-0.0643997,0.1323013-0.1454887,0.2514-0.2426987,0.3564034
			c-0.0965996,0.1054993-0.2031021,0.1947861-0.3193016,0.2675972c-0.1156998,0.0731888-0.2274895,0.1259995-0.3349991,0.1581879
			c0.1509018,0.0269127,0.2955093,0.0771141,0.4336014,0.1499138c0.1376991,0.0732002,0.2588005,0.1660004,0.3642998,0.2798004
			c0.1054993,0.1132889,0.1894989,0.2445984,0.2514992,0.3929977C61.1452446,52.9472237,61.176445,53.105423,61.176445,53.2724228z
			 M60.426445,50.7997246c0-0.2759018-0.0942001-0.4951019-0.2826996-0.6571999
			c-0.1884995-0.1626015-0.4336014-0.2437019-0.735302-0.2437019h-0.8803978v1.875h0.8563995
			c0.1343002,0,0.2636986-0.0243988,0.3876991-0.0727005c0.1240997-0.0487976,0.2344017-0.1166992,0.3311005-0.2031136
			c0.0971985-0.0868874,0.1748009-0.1894875,0.2343979-0.3085861C60.3966446,51.0702209,60.426445,50.9404221,60.426445,50.7997246z
			 M60.5592461,53.2489243c0-0.3139153-0.1064034-0.5615005-0.3198013-0.7420998
			c-0.2129021-0.1817017-0.4897003-0.2720032-0.8296013-0.2720032h-0.8817978v2.1171875h0.8817978
			c0.1567993,0,0.3052025-0.026886,0.4453011-0.0810852c0.1402092-0.0541992,0.2632103-0.1299133,0.3682098-0.2270012
			c0.1054916-0.0976982,0.1874886-0.213913,0.2470894-0.3487015C60.5295448,53.5595245,60.5592461,53.4111214,60.5592461,53.2489243
			z"/>
		<path class="st3" d="M64.2692413,54.8285217l0.0009995-0.5780983c-0.016098,0.0326996-0.0556946,0.0863991-0.1176987,0.1620979
			c-0.0619965,0.0757027-0.1445007,0.1509018-0.2475967,0.2266006c-0.1025009,0.0756989-0.2201996,0.1416016-0.3525009,0.1982002
			c-0.1328011,0.0566902-0.2743988,0.0849991-0.4258003,0.0849991c-0.3568993,0-0.6503983-0.0995979-0.8798981-0.2993126
			c-0.2299004-0.1996841-0.3447037-0.4804878-0.3447037-0.8417854c0-0.1729012,0.0498009-0.3320999,0.1499023-0.4776001
			c0.1000977-0.1455002,0.2271004-0.2723999,0.3814087-0.3802986c0.1542892-0.1079025,0.3216896-0.1997032,0.5028915-0.2754021
			c0.1811104-0.0756989,0.3501091-0.1293983,0.5067978-0.1617012l0.7949028-0.1782112v-0.267086
			c0-0.2646027-0.071701-0.4873009-0.214798-0.6679153c-0.1431046-0.180687-0.360302-0.2709999-0.6519051-0.2709999
			c-0.0863991,0-0.1839981,0.0161133-0.2915001,0.0483131c-0.108387,0.0326881-0.2108994,0.0693016-0.3080978,0.1094017
			c-0.0970993,0.0410004-0.1850014,0.0809975-0.2630997,0.1221008c-0.078701,0.0399971-0.1285019,0.0682983-0.1499023,0.0848999
			l-0.1704979-0.4375c0.0214996-0.0161018,0.0732994-0.0433998,0.1543007-0.0810013
			c0.0811005-0.0381012,0.1777992-0.0786018,0.2915001-0.1216011c0.1133003-0.043499,0.2388-0.0811005,0.3764992-0.1138
			c0.1376991-0.0321999,0.2769089-0.0482979,0.4174995-0.0482979c0.4105988,0,0.7377968,0.1147003,0.9824104,0.3442001
			c0.2445908,0.2294998,0.3666916,0.5658989,0.3666916,1.0087967v2.8110008H64.2692413z M64.2379456,52.7187233
			l-0.6801033,0.1455002c-0.1137962,0.027298-0.2348976,0.0678978-0.3647995,0.1219978
			c-0.1293983,0.053791-0.2469978,0.1187019-0.3519974,0.1944008c-0.1055031,0.0751991-0.1934013,0.1621017-0.2632027,0.2588005
			c-0.0702972,0.0975876-0.1054878,0.2030983-0.1054878,0.3163986c0,0.2265015,0.0688896,0.4048004,0.2065887,0.5346031
			c0.1376991,0.1293983,0.3060989,0.194397,0.5063019,0.194397c0.1239967,0,0.2441978-0.025898,0.3603973-0.0766983
			c0.1161995-0.0517006,0.2212029-0.1161995,0.3159027-0.1948013c0.0942001-0.0780983,0.1738091-0.1620979,0.2388115-0.2509995
			c0.0643845-0.0893135,0.1102905-0.1743126,0.1375885-0.2553101V52.7187233z"/>
		<path class="st3" d="M68.4464417,54.8285217l0.001503-0.5780983c-0.016098,0.0326996-0.0537033,0.0863991-0.1133041,0.1620979
			c-0.0590973,0.0757027-0.1356964,0.1509018-0.2294998,0.2266006c-0.0942001,0.0756989-0.1991959,0.1416016-0.3143997,0.1982002
			c-0.1156998,0.0566902-0.2323837,0.0849991-0.3510971,0.0849991c-0.2792892,0-0.516098-0.0658989-0.7095032-0.1983109
			c-0.1932983-0.1322861-0.3519974-0.305088-0.4754944-0.5180016c-0.1240997-0.2128868-0.2139053-0.4530869-0.2705994-0.7206879
			c-0.0561066-0.2665977-0.084404-0.5326996-0.084404-0.7968979c0-0.2432022,0.0361023-0.4844131,0.108902-0.7246017
			c0.072197-0.2402,0.1756973-0.4575005,0.3105011-0.6518974c0.1343079-0.1938019,0.2968979-0.3506012,0.4878006-0.4692001
			c0.1908951-0.1187134,0.4018936-0.1781998,0.6327972-0.1781998c0.123497,0,0.2407074,0.0267982,0.3506012,0.0809975
			c0.1102982,0.054203,0.2084961,0.1177025,0.2943954,0.1900024c0.0860062,0.0732002,0.1573029,0.1459999,0.2139053,0.2187004
			c0.0560989,0.0732994,0.0951996,0.1308975,0.1166992,0.1742973v-2.2421989h0.5625v5.7421989H68.4464417z M68.4152451,51.9433212
			c-0.010704-0.0429993-0.0405045-0.1093979-0.0884018-0.1983109c-0.0483017-0.0892868-0.1128006-0.1795883-0.1929016-0.271389
			c-0.0804977-0.0917969-0.1743011-0.1728973-0.2817001-0.2426987c-0.1068878-0.0703011-0.2250977-0.1054993-0.3535004-0.1054993
			c-0.1557999,0-0.294899,0.0405006-0.4179993,0.1215858c-0.123497,0.0810013-0.2294998,0.1929131-0.3177948,0.3359146
			c-0.0884018,0.1430855-0.1567993,0.3090858-0.205101,0.498085c-0.0484009,0.1889153-0.0723038,0.391613-0.0723038,0.6074142
			c0,0.1884995,0.0171051,0.3886986,0.0522995,0.598587c0.0345993,0.2109985,0.0922012,0.4024124,0.1728058,0.5752144
			c0.0800934,0.1728973,0.1850967,0.3158989,0.3134995,0.4291992c0.1288986,0.1133003,0.2870941,0.169899,0.4745941,0.169899
			c0.1177063,0,0.2313995-0.0321999,0.3418045-0.0970993c0.1093979-0.0644989,0.205101-0.140213,0.2850952-0.2266006
			c0.0806046-0.0863991,0.1460037-0.171402,0.1973038-0.2549019c0.0507965-0.0839996,0.0815964-0.1473999,0.0923004-0.1903992
			V51.9433212z"/>
		<path class="st3" d="M70.5607452,52.8910103c0,0.1617126,0.0199966,0.3345108,0.0605011,0.5181122
			c0.040596,0.1831017,0.1041107,0.3544998,0.1904984,0.5136986c0.0864029,0.1591911,0.197197,0.2910004,0.3324966,0.3965034
			c0.1348038,0.1054001,0.2969055,0.1576843,0.4858017,0.1576843c0.1133118,0,0.2256012-0.012188,0.3365021-0.0365868
			c0.1102982-0.0239983,0.2128983-0.0522995,0.3076019-0.0849991c0.094696-0.0321999,0.1766968-0.0658989,0.2470932-0.1011009
			c0.0703049-0.035099,0.1269073-0.0658989,0.1704025-0.0932007l0.169899,0.4696999
			c-0.0326996,0.0161018-0.0878983,0.0405006-0.1660004,0.0727005c-0.078598,0.0326996-0.1728973,0.0650024-0.283699,0.0972023
			c-0.1109009,0.0321999-0.2349014,0.0604973-0.3725967,0.0849991c-0.1377029,0.0243988-0.2822037,0.0365982-0.4336014,0.0365982
			c-0.3182907,0-0.5804977-0.0688972-0.7855988-0.2066002c-0.2056046-0.1377106-0.3692017-0.3153992-0.4916916-0.5340996
			c-0.122612-0.2182999-0.2080002-0.4584999-0.2569122-0.7202988c-0.0487976-0.2616997-0.0731964-0.5195007-0.0731964-0.7728996
			c0-0.2001991,0.032196-0.418499,0.0971985-0.6557999c0.0649109-0.2378006,0.1611023-0.4575005,0.2881012-0.6596146
			c0.1268997-0.2026863,0.2835999-0.3710861,0.4701996-0.5058861c0.1865005-0.1352005,0.403801-0.2025986,0.6528015-0.2025986
			c0.2753983,0,0.5078049,0.0648994,0.6972961,0.1942978c0.1893997,0.1294022,0.3418045,0.2943993,0.4580002,0.4937019
			c0.1162033,0.2001991,0.2002029,0.4183998,0.2514038,0.6562004c0.0513,0.2372856,0.0771942,0.4638977,0.0771942,0.6796989
			v0.2025871H70.5607452z M72.3986435,52.0644226c-0.035202-0.1615982-0.0894012-0.3125-0.1625977-0.4532013
			c-0.0727997-0.1395988-0.1688995-0.259697-0.2881012-0.3592987c-0.1191025-0.1001015-0.2621994-0.1499138-0.4301987-0.1499138
			c-0.1567001,0-0.294899,0.0473137-0.4135056,0.141613c-0.119194,0.0942001-0.2167969,0.2113876-0.2924957,0.3515015
			c-0.0756989,0.1401978-0.1343002,0.2901001-0.1743011,0.4487991c-0.0410919,0.1590881-0.0610886,0.3060875-0.0610886,0.4408989
			h1.875C72.451355,52.3661232,72.4337463,52.2260094,72.3986435,52.0644226z"/>
		<path class="st3" d="M76.4904404,54.8285217v-2.7308998c0-0.1078987-0.0175934-0.2196999-0.0522995-0.3359985
			c-0.0345993-0.1161995-0.0839005-0.221611-0.1483994-0.3164024c-0.0643845-0.0942116-0.1459961-0.1713982-0.2450943-0.2303963
			c-0.0986023-0.0596008-0.2124023-0.0894012-0.3408051-0.0894012c-0.1231003,0-0.2421951,0.0298004-0.3574905,0.0894012
			c-0.1147079,0.0589981-0.2167053,0.1307983-0.3046112,0.2142982c-0.0883865,0.0839996-0.1606979,0.1689987-0.2167969,0.2554016
			c-0.0561981,0.0863991-0.086998,0.1567001-0.0923004,0.2108994v2.9330978h-0.5625v-4.0702972h0.5390015v0.5668983
			c0.0107956-0.0267982,0.0455017-0.0765991,0.1049957-0.1493988c0.0586014-0.0732002,0.1367035-0.1475029,0.2334061-0.2231026
			c0.0966949-0.0756989,0.2065964-0.1420975,0.330101-0.2006989c0.123497-0.0581017,0.2548981-0.0873985,0.3944931-0.0873985
			c0.2149048,0,0.4029007,0.0389977,0.564003,0.1175995c0.1611023,0.0781975,0.2938995,0.1821976,0.3983994,0.3115997
			c0.1050034,0.1298981,0.1840973,0.2767982,0.2378082,0.4413986c0.0536957,0.1650009,0.0805893,0.3310013,0.0805893,0.4985008
			v2.794899H76.4904404z"/>
		<path class="st3" d="M78.2819443,52.6176224v-0.5h1.7012024v0.5H78.2819443z"/>
		<path class="st3" d="M85.6296463,54.8285217h-0.6562958l-1.1665039-4.6683998l-1.1504059,4.6683998h-0.6640854
			l-1.2475128-5.4062004h0.6235123l0.9804916,4.6683998l1.1503983-4.6683998h0.6557007l1.1591949,4.6683998l0.9717026-4.6683998
			h0.5917969L85.6296463,54.8285217z"/>
		<path class="st3" d="M90.0749435,54.8285217v-0.5751991c-0.0157013,0.0269012-0.0518036,0.0786896-0.1083984,0.153801
			c-0.0557022,0.0756989-0.1298981,0.1513977-0.2217026,0.2271004c-0.0917969,0.0756989-0.1972961,0.1425972-0.3183975,0.2006989
			c-0.1210938,0.0580864-0.2538986,0.0873985-0.3983994,0.0873985c-0.2206879,0-0.410202-0.0390968-0.5684052-0.1176987
			c-0.1581955-0.0780983-0.2889938-0.1806984-0.3905945-0.3076134c-0.1025009-0.1269989-0.1776886-0.2738876-0.2256012-0.4413872
			c-0.0487976-0.1674995-0.073204-0.3402977-0.073204-0.5186119v-2.7787857h0.5625v2.730999
			c0,0.1240005,0.0156097,0.2440987,0.044899,0.3602982c0.0293045,0.1161995,0.073204,0.2187996,0.1328049,0.3081017
			c0.0586014,0.0888977,0.1357956,0.1620979,0.232399,0.2187996c0.0957031,0.0565872,0.2138977,0.0848999,0.353508,0.0848999
			c0.1290054,0,0.2490921-0.0335999,0.3613892-0.1010017c0.1123047-0.0678978,0.2108994-0.1445999,0.2969055-0.2314987
			c0.0858994-0.0858994,0.1541977-0.1728134,0.2049942-0.258812c0.0508041-0.0868874,0.0791016-0.1459999,0.0839996-0.178688
			v-2.9330978h0.5625v4.0702972H90.0749435z M88.8756409,49.6606216c0,0.1020012-0.0360947,0.1898994-0.1092834,0.2621994
			c-0.0723114,0.0727005-0.1631165,0.108902-0.2715149,0.108902c-0.107399,0-0.1972961-0.0362015-0.267601-0.108902
			c-0.0702972-0.0723-0.1044998-0.1601982-0.1044998-0.2621994c0-0.1021004,0.0342026-0.1894989,0.1044998-0.2621994
			c0.0703049-0.0723,0.160202-0.1088982,0.267601-0.1088982c0.1083984,0,0.1992035,0.0365982,0.2715149,0.1088982
			C88.8395462,49.4711227,88.8756409,49.5585213,88.8756409,49.6606216z M90.2692413,49.6606216
			c0,0.1020012-0.0360947,0.1898994-0.1093979,0.2621994c-0.0731964,0.0727005-0.1631012,0.108902-0.2704926,0.108902
			c-0.1094055,0-0.1972046-0.0362015-0.2676086-0.108902c-0.0702972-0.0723-0.1053848-0.1601982-0.1053848-0.2621994
			c0-0.1021004,0.0350876-0.1894989,0.1053848-0.2621994c0.0704041-0.0723,0.1582031-0.1088982,0.2676086-0.1088982
			c0.1073914,0,0.1972961,0.0365982,0.2704926,0.1088982C90.2331467,49.4711227,90.2692413,49.5585213,90.2692413,49.6606216z"/>
		<path class="st3" d="M93.6471405,51.2939224c-0.0331955-0.0165977-0.0820007-0.0396004-0.1464996-0.0694008
			c-0.0643997-0.0293007-0.1209946-0.0443993-0.169899-0.0443993c-0.1083908,0-0.2108994,0.0312004-0.3086014,0.0932999
			c-0.0966949,0.0625-0.1835938,0.1337013-0.2587891,0.2148018c-0.0752106,0.0811005-0.1357117,0.1605988-0.1826096,0.2392998
			c-0.044899,0.0780983-0.0741959,0.1362-0.0839996,0.1742973v2.9267006h-0.5625v-4.0702972h0.5391083v0.5668983
			c0.0097961-0.0214996,0.0380936-0.0682983,0.0840073-0.1416016c0.0458832-0.0726967,0.1093826-0.1483994,0.1893845-0.2265091
			c0.0820999-0.0786896,0.177803-0.1464882,0.2881012-0.2050896c0.1103973-0.0581017,0.2363968-0.0873985,0.3769989-0.0873985
			c0.0702972,0,0.1473999,0.0140991,0.2313995,0.0414848c0.0830002,0.0283127,0.1406021,0.0556145,0.1739044,0.0835152
			L93.6471405,51.2939224z"/>
		<path class="st3" d="M96.488945,54.8373222c-0.0488052,0.0131989-0.1035004,0.0254021-0.1621017,0.036602
			c-0.0596008,0.0102997-0.1230011,0.0214996-0.1903992,0.032299c-0.0673981,0.0107002-0.1278992,0.016098-0.1826019,0.016098
			c-0.1621017,0-0.2988968-0.0243988-0.410202-0.0727997c-0.1112823-0.0487976-0.2011948-0.1152-0.2684937-0.1987
			c-0.0674057-0.0834999-0.1163025-0.1796989-0.1464996-0.2875977c-0.0302963-0.1079025-0.0449066-0.2187004-0.0449066-0.3320007
			V51.219223h-0.6806946v-0.4609985h0.6806946V49.656723h0.5625v1.1015015h0.8017044v0.4609985h-0.8017044v2.7547874
			c0,0.1138115,0.0253067,0.2232132,0.0771103,0.3287125c0.0507965,0.1049004,0.1386948,0.1576996,0.2636948,0.1576996
			c0.0751953,0,0.1581955-0.014698,0.25-0.0444984c0.0917969-0.0297012,0.1543121-0.055603,0.1875-0.0771027l0.169899,0.4619026
			C96.5729446,54.8114243,96.5378418,54.8237228,96.488945,54.8373222z"/>
		<path class="st3" d="M99.2506409,54.8373222c-0.0487976,0.0131989-0.1025009,0.0254021-0.1620941,0.036602
			c-0.0586014,0.0102997-0.1230011,0.0214996-0.1904068,0.032299c-0.0673981,0.0107002-0.1278992,0.016098-0.1815948,0.016098
			c-0.1621017,0-0.2989044-0.0243988-0.4101944-0.0727997c-0.1113052-0.0487976-0.20121-0.1152-0.2685089-0.1987
			c-0.0683975-0.0834999-0.1171951-0.1796989-0.1464844-0.2875977c-0.0303116-0.1079025-0.0450058-0.2187004-0.0450058-0.3320007
			V51.219223h-0.6816101v-0.4609985h0.6816101V49.656723h0.5624924v1.1015015h0.801796v0.4609985h-0.801796v2.7547874
			c0,0.1138115,0.0253983,0.2232132,0.0762024,0.3287125c0.051796,0.1049004,0.1386948,0.1576996,0.2636948,0.1576996
			c0.0752029,0,0.1592026-0.014698,0.2509995-0.0444984c0.0918045-0.0297012,0.1533051-0.055603,0.1865005-0.0771027
			l0.169899,0.4619026C99.3346405,54.8114243,99.2995453,54.8237228,99.2506409,54.8373222z"/>
		<path class="st3" d="M100.6686401,52.8910103c0,0.1617126,0.0195007,0.3345108,0.0606003,0.5181122
			c0.0410004,0.1831017,0.1035004,0.3544998,0.1903992,0.5136986c0.0869064,0.1591911,0.1973038,0.2910004,0.3320007,0.3965034
			c0.1358032,0.1054001,0.297905,0.1576843,0.4863052,0.1576843c0.1132965,0,0.2256012-0.012188,0.3359985-0.0365868
			c0.1102982-0.0239983,0.2138977-0.0522995,0.3076019-0.0849991c0.094696-0.0321999,0.1776962-0.0658989,0.2481003-0.1011009
			c0.0702972-0.035099,0.1268997-0.0658989,0.169899-0.0932007l0.169899,0.4696999
			c-0.0322037,0.0161018-0.0878983,0.0405006-0.1660004,0.0727005c-0.0780869,0.0326996-0.1728973,0.0650024-0.2832031,0.0972023
			c-0.1113968,0.0321999-0.2353973,0.0604973-0.3731003,0.0849991c-0.1376953,0.0243988-0.282196,0.0365982-0.4335938,0.0365982
			c-0.318306,0-0.5800018-0.0688972-0.7861023-0.2066002c-0.2050934-0.1377106-0.3690872-0.3153992-0.4912033-0.5340996
			c-0.1221008-0.2182999-0.2080002-0.4584999-0.2567978-0.7202988c-0.0488968-0.2616997-0.0733032-0.5195007-0.0733032-0.7728996
			c0-0.2001991,0.0322113-0.418499,0.097702-0.6557999c0.0643997-0.2378006,0.1601028-0.4575005,0.2871017-0.6596146
			c0.1268997-0.2026863,0.2842026-0.3710861,0.4706955-0.5058861c0.1865005-0.1352005,0.4043045-0.2025986,0.6523056-0.2025986
			c0.276413,0,0.5087967,0.0648994,0.6972961,0.1942978c0.1893997,0.1294022,0.3418045,0.2943993,0.4589996,0.4937019
			c0.1152039,0.2001991,0.1992035,0.4183998,0.2509995,0.6562004c0.0517044,0.2372856,0.0771103,0.4638977,0.0771103,0.6796989
			v0.2025871H100.6686401z M102.506546,52.0644226c-0.0351944-0.1615982-0.0898056-0.3125-0.1621017-0.4532013
			c-0.073204-0.1395988-0.169899-0.259697-0.289093-0.3592987c-0.1181107-0.1001015-0.2617111-0.1499138-0.4297104-0.1499138
			c-0.1561966,0-0.294899,0.0473137-0.4140015,0.141613c-0.119194,0.0942001-0.2167969,0.2113876-0.2919998,0.3515015
			c-0.0751953,0.1401978-0.1337967,0.2901001-0.1747971,0.4487991c-0.0401001,0.1590881-0.0606003,0.3060875-0.0606003,0.4408989
			h1.875C102.5592422,52.3661232,102.5417404,52.2260094,102.506546,52.0644226z"/>
		<path class="st3" d="M108.6979446,54.8285217v-2.7308998c0-0.1186981-0.0137024-0.2364006-0.0410004-0.3526115
			c-0.0263977-0.1156883-0.0683975-0.2196884-0.125-0.3114891c-0.0565872-0.0917969-0.1328049-0.1660004-0.2294998-0.2230988
			c-0.0967026-0.0566978-0.2128983-0.0849991-0.347702-0.0849991c-0.1396027,0-0.2646027,0.025898-0.3759003,0.077198
			c-0.1093979,0.0512009-0.2041016,0.1132011-0.2823029,0.1860008c-0.0780945,0.0732002-0.1415939,0.1503868-0.1903992,0.2313881
			c-0.0477829,0.0811119-0.0741959,0.1509132-0.0800934,0.2105141v2.9979973h-0.5625v-2.7308998
			c0-0.1186981-0.0117035-0.2364006-0.0361023-0.3526115c-0.0243988-0.1156883-0.0653992-0.2196884-0.1210938-0.3114891
			c-0.0566101-0.0917969-0.1318054-0.1660004-0.2266083-0.2230988c-0.094696-0.0566978-0.2137985-0.0849991-0.3592987-0.0849991
			c-0.1288986,0-0.2490921,0.0298004-0.3593979,0.0894012c-0.110405,0.0589981-0.2061005,0.1307983-0.2861023,0.2142982
			c-0.0820999,0.0839996-0.1464996,0.1689987-0.194397,0.2554016c-0.0488052,0.0863991-0.0781021,0.1567001-0.0888062,0.2108994
			v2.9330978h-0.5625v-4.0702972h0.5390015v0.5668983c0.0156021-0.0214996,0.0498047-0.0682983,0.1016006-0.1416016
			c0.0508041-0.0726967,0.118103-0.1483994,0.2021027-0.2265091c0.0830002-0.0786896,0.1865997-0.1464882,0.3077011-0.2050896
			c0.1209946-0.0581017,0.2577972-0.0873985,0.4081955-0.0873985c0.2001038,0,0.3652039,0.0267982,0.4980011,0.0809975
			c0.1327972,0.054203,0.2412033,0.1177025,0.3281021,0.1904907c0.0859985,0.0727119,0.1504059,0.1459999,0.1934128,0.2187119
			c0.0438843,0.0727997,0.0761871,0.1308975,0.0975876,0.1742859c0.0157013-0.0272865,0.0527954-0.0770874,0.1094055-0.1503868
			c0.056694-0.0727005,0.1318893-0.1469002,0.226593-0.2226143c0.094696-0.0751877,0.2080002-0.1430855,0.339798-0.2021866
			c0.1328049-0.0594978,0.2793045-0.0892982,0.4413986-0.0892982c0.2325058,0,0.427803,0.0389977,0.5868988,0.1175995
			c0.1592026,0.0781975,0.2872009,0.1821976,0.3838043,0.3115997c0.097702,0.1298981,0.1660004,0.2767982,0.2070999,0.4413986
			c0.0400009,0.1650009,0.0605011,0.3310013,0.0605011,0.4985008v2.794899H108.6979446z"/>
		<path class="st3" d="M113.7145462,52.6884232c0,0.2641983-0.0381012,0.528801-0.1133041,0.7929993
			c-0.0752029,0.2645874-0.1884003,0.5033989-0.3387985,0.716301c-0.1513977,0.213398-0.336998,0.3871994-0.5577011,0.5219002
			c-0.2207031,0.1352997-0.4765015,0.2026978-0.7675018,0.2026978c-0.0811005,0-0.1846008-0.006897-0.3115997-0.0200005
			c-0.1259003-0.0136986-0.2538986-0.031311-0.3827972-0.0527992c-0.1298981-0.0215111-0.2509003-0.0429001-0.3642044-0.0648994
			c-0.1122818-0.0214996-0.194397-0.0376129-0.2421951-0.0484009v-5.6498985h0.5625l-0.0048981,2.2421989
			c0.0155945-0.0326996,0.0526962-0.0848999,0.1093979-0.1576996c0.0566025-0.0732002,0.1289139-0.1473999,0.2177963-0.222599
			c0.0888062-0.0756989,0.1893997-0.1421013,0.3027039-0.1987991c0.1132965-0.0566025,0.2314072-0.0848999,0.3554993-0.0848999
			c0.2743988,0,0.5086975,0.0634003,0.7031021,0.1903992c0.1942978,0.1264992,0.3525009,0.2870865,0.4764938,0.4813995
			c0.1241074,0.1944008,0.2139053,0.4116859,0.270607,0.6519012
			C113.6862411,52.2284241,113.7145462,52.4618225,113.7145462,52.6884232z M113.1286392,52.6884232
			c0-0.1781998-0.0204926-0.3604126-0.0605927-0.5469017c-0.0400009-0.185997-0.1015015-0.3549995-0.1845016-0.5057983
			c-0.0830994-0.1514015-0.1875-0.2740021-0.3134995-0.3687134c-0.1259995-0.0941887-0.2783051-0.1415863-0.4541016-0.1415863
			c-0.107399,0-0.2128983,0.0326996-0.3183975,0.0971985c-0.1035004,0.0648994-0.1991959,0.1390991-0.2851028,0.222599
			c-0.0859985,0.0840034-0.1582031,0.1690025-0.2167969,0.2549019c-0.0586014,0.0868874-0.0918045,0.1514015-0.0967026,0.1944008
			v2.4696999c0.0214996,0.0107002,0.0634995,0.0214996,0.1240005,0.0321999
			c0.0625,0.0107002,0.1288986,0.0205002,0.2011948,0.0283012c0.0722122,0.0082855,0.1465073,0.0165977,0.2217026,0.0243988
			c0.0752029,0.0083008,0.1396027,0.0121994,0.1922989,0.0121994c0.1875,0,0.3554993-0.0565987,0.5029984-0.169899
			c0.1473999-0.1133003,0.2723999-0.2563019,0.3740005-0.4291992c0.1016006-0.172802,0.1797028-0.3642159,0.2324066-0.5752144
			C113.1022415,53.0771217,113.1286392,52.8769226,113.1286392,52.6884232z"/>
		<path class="st3" d="M115.1276398,52.8910103c0,0.1617126,0.0195007,0.3345108,0.0605011,0.5181122
			c0.0401001,0.1831017,0.1035995,0.3544998,0.1894989,0.5136986c0.0869064,0.1591911,0.1973038,0.2910004,0.3330002,0.3965034
			c0.1348038,0.1054001,0.2969055,0.1576843,0.485405,0.1576843c0.1131973,0,0.2265015-0.012188,0.3368988-0.0365868
			c0.1102982-0.0239983,0.2128983-0.0522995,0.3076019-0.0849991c0.094696-0.0321999,0.1766968-0.0658989,0.2471008-0.1011009
			c0.0702972-0.035099,0.1268997-0.0658989,0.1708984-0.0932007l0.169899,0.4696999
			c-0.0332031,0.0161018-0.0878983,0.0405006-0.1660004,0.0727005c-0.0790863,0.0326996-0.1739044,0.0650024-0.2842026,0.0972023
			c-0.1103973,0.0321999-0.2353973,0.0604973-0.3721008,0.0849991c-0.1386948,0.0243988-0.2831955,0.0365982-0.4335938,0.0365982
			c-0.318306,0-0.5810013-0.0688972-0.7861023-0.2066002c-0.2060928-0.1377106-0.3692017-0.3153992-0.4912033-0.5340996
			c-0.1231003-0.2182999-0.2089996-0.4584999-0.2577972-0.7202988c-0.0489044-0.2616997-0.0723038-0.5195007-0.0723038-0.7728996
			c0-0.2001991,0.0312119-0.418499,0.0967026-0.6557999c0.0653992-0.2378006,0.1611023-0.4575005,0.2881012-0.6596146
			c0.1268997-0.2026863,0.2831955-0.3710861,0.4706955-0.5058861c0.1855011-0.1352005,0.4033051-0.2025986,0.6523056-0.2025986
			c0.2754059,0,0.5077972,0.0648994,0.6972961,0.1942978c0.1893997,0.1294022,0.3418045,0.2943993,0.4580002,0.4937019
			c0.1162033,0.2001991,0.2002029,0.4183998,0.2509995,0.6562004c0.0517044,0.2372856,0.0781174,0.4638977,0.0781174,0.6796989
			v0.2025871H115.1276398z M116.9655457,52.0644226c-0.0351944-0.1615982-0.0899048-0.3125-0.1631012-0.4532013
			c-0.073204-0.1395988-0.1688995-0.259697-0.2880936-0.3592987c-0.1191101-0.1001015-0.2617111-0.1499138-0.4297104-0.1499138
			c-0.157196,0-0.294899,0.0473137-0.4140015,0.141613c-0.119194,0.0942001-0.2167969,0.2113876-0.2929993,0.3515015
			c-0.0751953,0.1401978-0.1337967,0.2901001-0.1737976,0.4487991c-0.0410004,0.1590881-0.0606003,0.3060875-0.0606003,0.4408989
			h1.875C117.0182419,52.3661232,117.0006409,52.2260094,116.9655457,52.0644226z"/>
		<path class="st3" d="M120.3932419,51.2939224c-0.032196-0.0165977-0.0810013-0.0396004-0.1464996-0.0694008
			c-0.0643845-0.0293007-0.1211014-0.0443993-0.169899-0.0443993c-0.107399,0-0.2108994,0.0312004-0.3076019,0.0932999
			c-0.0966949,0.0625-0.1836014,0.1337013-0.2587967,0.2148018c-0.0762024,0.0811005-0.1367035,0.1605988-0.1826019,0.2392998
			c-0.0458984,0.0780983-0.0742035,0.1362-0.0849991,0.1742973v2.9267006h-0.5624924v-4.0702972h0.539093v0.5668983
			c0.0097961-0.0214996,0.0391006-0.0682983,0.0839996-0.1416016c0.0459137-0.0726967,0.1093979-0.1483994,0.1903992-0.2265091
			c0.0811005-0.0786896,0.176796-0.1464882,0.2881012-0.2050896c0.1102982-0.0581017,0.2362976-0.0873985,0.3768997-0.0873985
			c0.069397,0,0.1465073,0.0140991,0.2305069,0.0414848c0.0839996,0.0283127,0.1415939,0.0556145,0.17379,0.0835152
			L120.3932419,51.2939224z"/>
		<path class="st3" d="M123.670639,51.156723c0.0215073,0.0267982,0.0507126,0.0677986,0.0888062,0.1214981
			c0.0381012,0.053791,0.0751953,0.1202011,0.1103973,0.1983032c0.0351028,0.078598,0.0663986,0.1679993,0.0936966,0.2675972
			c0.0274048,0.1001015,0.0411072,0.206501,0.0411072,0.3203011c0,0.205101-0.035202,0.3983994-0.1055069,0.5791016
			c-0.0702972,0.1810989-0.1679993,0.3387985-0.2919998,0.4740982s-0.2724991,0.2416992-0.4462967,0.3198013
			c-0.1718979,0.0785866-0.3583984,0.1176987-0.5586014,0.1176987c-0.0586014,0-0.1230011,0.0107002-0.1903992,0.0326996
			c-0.0673981,0.0214996-0.1308975,0.0488014-0.1904907,0.0811005c-0.0585098,0.0326996-0.1093063,0.0722008-0.1494064,0.1180878
			c-0.0400009,0.0459137-0.0615005,0.093811-0.0615005,0.1426125c0,0.1190987,0.0556946,0.2168007,0.1660004,0.2929993
			c0.1113968,0.0757027,0.2529984,0.1137009,0.4257965,0.1137009c0.2217026,0,0.4356003,0.0259018,0.6406021,0.077198
			c0.205101,0.0513,0.3857956,0.1269035,0.5429993,0.2270012c0.1563034,0.0997009,0.2813034,0.221199,0.375,0.3647995
			c0.0938034,0.1431007,0.1406021,0.3066025,0.1406021,0.4902c0,0.1407013-0.0410004,0.2807999-0.1220016,0.421402
			c-0.0810928,0.1405983-0.1963043,0.2705002-0.3448029,0.389698c-0.1483994,0.1186028-0.3260956,0.2143021-0.5341949,0.2876015
			c-0.2080002,0.0727005-0.4384003,0.1092987-0.6923065,0.1092987c-0.226593,0-0.4394989-0.0298004-0.6367874-0.0892982
			c-0.1972122-0.0596008-0.3652115-0.1392136-0.505806-0.2388c-0.1406021-0.1001015-0.2509995-0.2192001-0.3320007-0.3568993
			c-0.0811005-0.1377029-0.1211014-0.2881012-0.1211014-0.4502029c0-0.156311,0.0410004-0.2958984,0.125-0.4169998
			c0.0839081-0.122097,0.1816025-0.2231979,0.2949142-0.3041992c0.1132813-0.0811119,0.230484-0.1445007,0.348587-0.1903992
			c0.1181946-0.0458984,0.2157974-0.0718002,0.2919998-0.0772018c-0.0381012-0.0053978-0.0898056-0.0199966-0.1543045-0.0443993
			c-0.0653992-0.0243988-0.1288986-0.0585976-0.1913986-0.1021118c-0.0625-0.0433884-0.1161957-0.1000862-0.1621017-0.1703873
			c-0.0458984-0.0703011-0.0683975-0.1543007-0.0683975-0.2518997c0-0.0655022,0.0214996-0.1288986,0.0644989-0.1913986
			c0.0429993-0.0621033,0.0947037-0.1177025,0.1543045-0.1665001c0.0595932-0.0489006,0.1200943-0.0894012,0.1825943-0.1221008
			c0.0625-0.0321999,0.1152115-0.0541992,0.1582108-0.0650024c-0.0752106-0.0267982-0.1611099-0.0711975-0.2588043-0.133709
			c-0.0976028-0.0615883-0.1894073-0.1484909-0.2793045-0.2587891c-0.0887985-0.1104012-0.1621017-0.2481003-0.2226028-0.4131012
			c-0.0585938-0.1646004-0.0878983-0.3628006-0.0878983-0.5946999c0-0.1729012,0.0361023-0.3428001,0.1094055-0.5102997
			c0.0722046-0.1674995,0.1717987-0.3168983,0.2987976-0.4491997c0.1268997-0.1323013,0.2754135-0.2388,0.4452972-0.3198013
			c0.169899-0.0811119,0.3516006-0.1215973,0.5468979-0.1215973c0.1230011,0,0.2412186,0.0116997,0.3515015,0.035099
			c0.110405,0.0234985,0.1904984,0.0429993,0.2383041,0.0586014h1.1504059v0.3984985H123.670639z M123.7311401,55.4955215
			c0-0.2108994-0.107399-0.3852005-0.3202972-0.5228996c-0.2138977-0.1376991-0.482399-0.2066116-0.8066025-0.2066116
			c-0.1347961,0-0.2657013,0.0191116-0.392601,0.0567131c-0.1269989,0.0381012-0.2392883,0.0892868-0.3359985,0.1542854
			c-0.0975952,0.064415-0.1756973,0.141613-0.2352829,0.2309151c-0.0596161,0.0888977-0.088913,0.184597-0.088913,0.2875977
			c0,0.1026001,0.0253983,0.2012024,0.0761948,0.2959023c0.0518036,0.0942993,0.1230011,0.1781998,0.2148056,0.2514992
			c0.0917969,0.0727005,0.2031937,0.1307983,0.3320999,0.1738014c0.1298981,0.043499,0.2733994,0.0649986,0.4296951,0.0649986
			c0.162117,0,0.3105011-0.0229988,0.4453049-0.0689011c0.1356964-0.0458984,0.2538986-0.1054993,0.357399-0.1781998
			c0.1016006-0.0732994,0.1815948-0.1567001,0.2382965-0.2514992
			C123.7018433,55.6884232,123.7311401,55.5927238,123.7311401,55.4955215z M123.4342422,52.0654221
			c0-0.2968979-0.0741959-0.5351982-0.2216034-0.7159004c-0.1474991-0.1805992-0.3496933-0.2709999-0.6064987-0.2709999
			c-0.1288986,0-0.2460938,0.0269012-0.3495941,0.0811005c-0.1055069,0.0536995-0.1924057,0.1264992-0.2617035,0.2182999
			c-0.0702972,0.0917015-0.1231003,0.196701-0.1611023,0.3153992c-0.0381012,0.1186028-0.0556946,0.242691-0.0556946,0.3721008
			c0,0.1455002,0.0136948,0.2840996,0.0438995,0.4165001c0.0292969,0.1323013,0.0761948,0.2465019,0.1406937,0.3437004
			c0.0634003,0.0971985,0.148407,0.1738014,0.2529068,0.2304993c0.1044998,0.0566025,0.2343979,0.0848885,0.3905945,0.0848885
			c0.1493988,0,0.2774048-0.0336876,0.3809052-0.1009979c0.1054001-0.0673904,0.1913986-0.1523895,0.2577972-0.2548904
			c0.0663986-0.1026001,0.1152039-0.2168007,0.1445084-0.3437996
			C123.4186401,52.3149223,123.4342422,52.1894226,123.4342422,52.0654221z"/>
	</g>
</g>
<g>
	<g>
		<path class="st3" d="M61.5671425,43.113224c0,0.3945007-0.059597,0.7636986-0.1787872,1.1063995
			c-0.1186104,0.3432999-0.2822113,0.6415977-0.4902115,0.8955994c-0.2080002,0.2538986-0.4556007,0.4541016-0.7421989,0.6001015
			c-0.2861023,0.1458969-0.5972023,0.2186852-0.9325905,0.2186852h-1.2891083v-5.4061852h1.1757965
			c0.3457031,0,0.6690025,0.0594978,0.9688034,0.1781845c0.3002968,0.1191139,0.560997,0.2890015,0.7826996,0.5107155
			c0.2216988,0.2216988,0.3944969,0.4916992,0.5189972,0.8106003C61.5046425,42.3461227,61.5671425,42.7079239,61.5671425,43.113224
			z M60.9577446,43.113224c0-0.3296013-0.0489006-0.6245003-0.1455002-0.8838005
			c-0.097702-0.2598-0.2271004-0.4804993-0.3891983-0.6611023c-0.161602-0.1816978-0.3496017-0.3203125-0.5630035-0.4179993
			c-0.2128983-0.0971985-0.4354973-0.1459999-0.6679001-0.1459999h-0.6640968v4.4531021h0.6884995
			c0.2425995,0,0.4706993-0.0610008,0.6839981-0.1826019c0.2134018-0.1216011,0.3985023-0.2875977,0.5552025-0.4985008
			c0.1562996-0.2108994,0.2792969-0.4584999,0.3681984-0.7421989C60.9132423,43.7499237,60.9577446,43.4433212,60.9577446,43.113224
			z"/>
		<path class="st3" d="M64.8361435,45.9340096v-0.5751877c-0.016098,0.0269012-0.0522995,0.0786018-0.108902,0.153801
			c-0.0560989,0.0756989-0.130394,0.1513863-0.2216949,0.2271004c-0.091301,0.0756989-0.1971893,0.142498-0.318306,0.2006989
			c-0.1205978,0.0581017-0.2538872,0.0874023-0.3984947,0.0874023c-0.2207031,0-0.4101028-0.0391006-0.5683022-0.1177025
			c-0.1581993-0.0781097-0.2890892-0.1806984-0.3907013-0.3075981c-0.1024971-0.1270027-0.1777-0.2740021-0.2254982-0.4414024
			c-0.0488892-0.1674995-0.0727997-0.3403969-0.0727997-0.5185966v-2.778801h0.5625v2.7308998
			c0,0.1240997,0.014698,0.2441978,0.0444107,0.3603859c0.0292892,0.1162148,0.073288,0.2187119,0.1323891,0.3081131
			c0.058609,0.0888863,0.1362,0.1621017,0.2328987,0.2187996c0.0962029,0.0566025,0.2138023,0.0848999,0.3535004,0.0848999
			c0.1283989,0,0.2490044-0.033699,0.3613014-0.1011009c0.1122971-0.0677986,0.2114029-0.1444969,0.2974014-0.2313995
			c0.0853958-0.0858994,0.153801-0.1728973,0.2045975-0.2588005c0.0508041-0.0868988,0.0791016-0.1459999,0.084404-0.1786995
			v-2.9330978h0.5625076v4.0702858H64.8361435z"/>
		<path class="st3" d="M68.8297424,45.9340096l0.0009995-0.5780869c-0.016098,0.0326996-0.0555954,0.0863991-0.1176987,0.1620865
			c-0.0619965,0.0757141-0.1445007,0.1509132-0.2474976,0.2266121c-0.1026001,0.0756035-0.220192,0.1416016-0.3526001,0.1982002
			c-0.1328049,0.0566025-0.2743988,0.0850029-0.425705,0.0850029c-0.3569946,0-0.6503983-0.0997009-0.8798828-0.2994003
			c-0.2300034-0.1996994-0.3447113-0.4804153-0.3447113-0.8418007c0-0.172802,0.0497971-0.3320007,0.1498947-0.4775009
			c0.1001053-0.1455002,0.227005-0.2724991,0.3813019-0.3803978c0.1543045-0.1079025,0.3218002-0.1997147,0.5028992-0.2754021
			c0.1811981-0.0755997,0.3501053-0.1293983,0.5069046-0.1615982l0.794899-0.1781998v-0.2671013
			c0-0.2645988-0.0718002-0.4873009-0.2148056-0.6679993c-0.1430969-0.1805992-0.3603897-0.2709999-0.6518936-0.2709999
			c-0.0864029,0-0.1841049,0.0161972-0.2914886,0.0483971c-0.1084137,0.0327034-0.2109146,0.0693016-0.3081131,0.1094017
			c-0.0971985,0.0410004-0.1851044,0.0810013-0.2631989,0.1220016c-0.0786057,0.0401001-0.1284027,0.0683975-0.1499023,0.0849991
			l-0.1704025-0.4375c0.0214996-0.0161018,0.073204-0.043499,0.1543045-0.0811005
			c0.0810013-0.0381012,0.1776962-0.0786133,0.2914963-0.1215019c0.1133041-0.043499,0.2388153-0.0811119,0.376503-0.1138
			c0.1376953-0.0321999,0.2768021-0.0483971,0.4173965-0.0483971c0.4107056,0,0.7378006,0.1147995,0.9825058,0.3442993
			c0.2445984,0.2294998,0.3666992,0.5658989,0.3666992,1.0087852v2.8110008H68.8297424z M68.7985458,43.8241234l-0.680191,0.1455002
			c-0.1137085,0.0273857-0.2348099,0.0678978-0.3647079,0.1221008c-0.1294022,0.0536995-0.2471008,0.1186981-0.3521042,0.194397
			c-0.1054001,0.0750999-0.1932983,0.1621017-0.2631912,0.2587013c-0.0703049,0.097702-0.1054077,0.203186-0.1054077,0.3163986
			c0,0.2266006,0.0688019,0.404789,0.2064972,0.5347023c0.1377029,0.1293983,0.3062057,0.1944008,0.5064011,0.1944008
			c0.1240005,0,0.2441025-0.0259018,0.3603058-0.0767021c0.1162033-0.0517998,0.2212067-0.1161995,0.3158951-0.1947975
			c0.0943146-0.0782013,0.1739044-0.1621017,0.2388-0.2510033c0.0645142-0.0893974,0.1103973-0.1742973,0.1377029-0.2553978
			V43.8241234z"/>
		<path class="st3" d="M71.8341446,45.9872246c-0.0970993,0.0268974-0.1865005,0.0405998-0.2669983,0.0405998
			c-0.1622009,0-0.2950058-0.0269012-0.3985062-0.0811005c-0.1029968-0.0537148-0.185997-0.1254997-0.248497-0.2144012
			c-0.0625-0.0887985-0.1060028-0.1927986-0.1304016-0.3115005c-0.0243835-0.1185989-0.0365982-0.2430992-0.0365982-0.3724976
			v-4.8565025h0.5625v4.8081017c0,0.1669998,0.0214996,0.3022995,0.0649033,0.4048004
			c0.0429993,0.1024971,0.1161957,0.1537971,0.218811,0.1537971c0.03759,0,0.0863876-0.0136986,0.1454849-0.0405121
			c0.0596008-0.026886,0.1000977-0.0541878,0.1216049-0.0810852l0.1703949,0.4692993
			C71.9987411,45.9335213,71.9313507,45.9604225,71.8341446,45.9872246z"/>
		<path class="st3" d="M73.2990417,43.9965248c0,0.1615982,0.0200043,0.3344841,0.0605011,0.5180969
			c0.0406036,0.1831017,0.1040039,0.3544998,0.1904984,0.5135994c0.0864029,0.1592026,0.1972046,0.2911034,0.3325043,0.3965034
			c0.134697,0.1054993,0.2968979,0.1576996,0.4858093,0.1576996c0.1132889,0,0.2255859-0.0121994,0.3363876-0.036602
			c0.110405-0.0238991,0.2128983-0.0522003,0.3077011-0.0848999c0.0947037-0.032299,0.1766968-0.0659981,0.2470016-0.1011009
			c0.0702972-0.0351982,0.1269989-0.0658989,0.1703949-0.0932999l0.1700058,0.4696999
			c-0.0326996,0.016201-0.0878983,0.0405998-0.1660995,0.0727882c-0.0786057,0.0327148-0.1728058,0.0649147-0.2835999,0.0972137
			c-0.1109009,0.0321999-0.2349014,0.0605011-0.3726044,0.0848999c-0.1376953,0.0243988-0.2821884,0.0367012-0.4336014,0.0367012
			c-0.3183975,0-0.5805893-0.0689011-0.7855835-0.2066002c-0.2056122-0.1377029-0.3692169-0.315403-0.4917145-0.534214
			c-0.1225967-0.2181854-0.2080002-0.4584885-0.256897-0.7201881c-0.0488052-0.2616997-0.073204-0.5195007-0.073204-0.7728996
			c0-0.2001991,0.0322037-0.418499,0.0971985-0.6557999c0.0649033-0.2378006,0.1611023-0.4575005,0.288002-0.6596985
			c0.1269989-0.2026024,0.283699-0.3711014,0.4702988-0.5058022c0.1865005-0.1352997,0.403801-0.2026978,0.6528015-0.2026978
			c0.2753983,0,0.5078049,0.0649986,0.6973038,0.194397c0.1893997,0.1294022,0.3416977,0.2944031,0.4580002,0.4936028
			c0.1162109,0.2001991,0.2002106,0.418499,0.2513962,0.6562996c0.0513,0.2373009,0.0772018,0.4637871,0.0772018,0.6796989
			v0.2026024H73.2990417z M75.1369476,43.1698227c-0.035202-0.1615982-0.0894012-0.3125-0.16259-0.4530983
			c-0.0728149-0.1396027-0.1690063-0.2597122-0.2881165-0.3594017c-0.1190948-0.1001015-0.2621994-0.1498985-0.4301987-0.1498985
			c-0.1566849,0-0.294899,0.0473976-0.4135971,0.1415863c-0.1190948,0.0943108-0.2168045,0.2115135-0.2924042,0.3516121
			c-0.0756836,0.1400986-0.1343002,0.2900009-0.1744003,0.4487c-0.0410004,0.1591988-0.060997,0.3062019-0.060997,0.4410019h1.875
			C75.1896439,43.4716225,75.1720428,43.3315239,75.1369476,43.1698227z"/>
		<path class="st3" d="M82.1066437,45.9340096v-2.5780869H79.880043v2.5780869h-0.593689v-5.4061852h0.593689v2.3437004h2.2266006
			v-2.3437004h0.5938034v5.4061852H82.1066437z"/>
		<path class="st3" d="M87.1823578,43.7939224c0,0.221199-0.0274124,0.4624023-0.0840073,0.7240868
			c-0.0566101,0.2617149-0.1475067,0.5049133-0.2715073,0.7285156c-0.1240005,0.2240982-0.2890015,0.4101982-0.493103,0.5585976
			c-0.2050934,0.1483994-0.4561005,0.222702-0.7529984,0.222702c-0.3065948,0-0.5643845-0.0743027-0.7714996-0.222702
			c-0.2080002-0.1483994-0.3730011-0.3330002-0.4940948-0.5541992c-0.1211014-0.2216988-0.2070007-0.4629135-0.2587967-0.7246017
			c-0.0517044-0.2616997-0.0771103-0.5058975-0.0771103-0.732399c0-0.1835976,0.0302048-0.3915977,0.0898056-0.6236
			c0.0586014-0.2318993,0.1533051-0.4515991,0.2831955-0.6595993c0.1288986-0.2080002,0.294899-0.3828011,0.4971161-0.5264015
			c0.2020874-0.1425972,0.4462891-0.2143974,0.7313843-0.2143974c0.302803,0,0.5557022,0.0704002,0.7608032,0.2104988
			c0.2050018,0.1405869,0.3701019,0.3129997,0.4930954,0.5181007c0.125,0.204998,0.2129059,0.4251976,0.267601,0.6595993
			C87.1559448,43.3930092,87.1823578,43.6049232,87.1823578,43.7939224z M86.5963516,43.7939224
			c0-0.1352997-0.0156097-0.2919998-0.0478058-0.469799c-0.0321884-0.1781998-0.0889053-0.348114-0.1688995-0.5102005
			c-0.0811005-0.1615982-0.1856003-0.2993011-0.3145065-0.4131012c-0.1288986-0.1133003-0.2909927-0.169899-0.4843979-0.169899
			c-0.1875,0-0.3456955,0.0541992-0.4746017,0.1620865c-0.1288986,0.107914-0.2343979,0.2417145-0.3143997,0.4009132
			c-0.0811005,0.1590881-0.1386948,0.3290863-0.1738968,0.5097008c-0.0351028,0.1811981-0.0526962,0.3442993-0.0526962,0.4902992
			c0,0.161602,0.0155945,0.3451996,0.044899,0.5503006c0.0293045,0.2050018,0.0820999,0.3978996,0.157196,0.5791016
			c0.0752029,0.1805992,0.1788025,0.3334999,0.3096008,0.4574966c0.1327972,0.1240005,0.3007965,0.1860008,0.5038986,0.1860008
			c0.1992035,0,0.3643036-0.0620003,0.4961014-0.1860008c0.131897-0.1239967,0.2362976-0.2768974,0.3145142-0.4574966
			c0.0780869-0.1812019,0.1317825-0.3740997,0.161087-0.5791016C86.5827408,44.139122,86.5963516,43.9555244,86.5963516,43.7939224z
			"/>
		<path class="st3" d="M90.7174454,45.8095245c-0.0672989,0.0321999-0.1502991,0.0643997-0.2509003,0.0966988
			c-0.0996017,0.0321999-0.2118988,0.0605011-0.3359985,0.0848999c-0.1240005,0.0243988-0.2539063,0.0367012-0.3886032,0.0367012
			c-0.2919998,0-0.5391006-0.0650024-0.7413025-0.1944008c-0.2030945-0.1294136-0.3670959-0.2993011-0.4920959-0.5097008
			c-0.1240997-0.2104988-0.2149048-0.4492989-0.2714996-0.7164001c-0.0576019-0.2669983-0.0859985-0.5384979-0.0859985-0.8134003
			c0-0.2266006,0.0380936-0.4599991,0.1133041-0.7001991c0.0761948-0.2402992,0.1835938-0.4575005,0.3222961-0.6519012
			c0.1377106-0.1942978,0.3055954-0.3549995,0.5028992-0.4813995c0.1962967-0.1269989,0.419899-0.1904984,0.6679993-0.1904984
			c0.1190948,0,0.2352982,0.0107994,0.3485947,0.032299c0.1133041,0.0219002,0.2149048,0.0472984,0.3037033,0.0770988
			c0.0888977,0.0298004,0.1651001,0.0591011,0.2276001,0.0889015c0.0615005,0.0297852,0.100502,0.0522003,0.1172028,0.0687866
			l-0.1700058,0.4693146c-0.0165939-0.0161018-0.0546951-0.0391006-0.1132889-0.0689011
			c-0.0605087-0.0298004-0.130806-0.0605011-0.210907-0.0932007c-0.0820007-0.032299-0.1660004-0.0591011-0.2557983-0.0806007
			c-0.0889053-0.0219994-0.1709061-0.0326996-0.2471008-0.0326996c-0.1621017,0-0.3057022,0.0483017-0.4326019,0.1459999
			c-0.1269989,0.0966988-0.2343979,0.222599-0.3202972,0.3764c-0.0870056,0.153801-0.1524048,0.3223-0.199295,0.5059013
			c-0.0449066,0.1835976-0.068306,0.3617859-0.068306,0.5346985c0,0.2103996,0.0185013,0.4223022,0.0565948,0.6352005
			c0.0381012,0.2134018,0.0986023,0.403801,0.1826019,0.5708008c0.0830002,0.1674995,0.1913986,0.3036995,0.3233032,0.4091988
			c0.1328125,0.1049995,0.2910004,0.1576996,0.4746017,0.1576996c0.0858994,0,0.1757965-0.0107002,0.2675934-0.0321999
			c0.0918045-0.0219994,0.1796112-0.0487976,0.2627029-0.0811005c0.0839081-0.0326996,0.1591034-0.0663986,0.2275009-0.1015129
			c0.0664063-0.0351868,0.1172028-0.0658875,0.1494064-0.0932846l0.1698914,0.4774971
			C90.8297424,45.7529221,90.7858429,45.7768211,90.7174454,45.8095245z"/>
		<path class="st3" d="M94.2057419,45.9340096v-2.730999c0-0.1078873-0.017601-0.2196884-0.0526962-0.3358879
			c-0.0342026-0.1161995-0.0839996-0.2216988-0.1483994-0.3163986c-0.0634995-0.0942001-0.1455994-0.171402-0.2442017-0.2304993
			c-0.0996017-0.0595016-0.2128983-0.0893021-0.3418045-0.0893021c-0.1278992,0-0.25,0.0312004-0.3651962,0.0932007
			c-0.1143036,0.0620995-0.2167969,0.1348-0.3047028,0.2187996c-0.0878983,0.0839996-0.1591949,0.1688995-0.2128983,0.2554016
			c-0.0526962,0.0863991-0.0820007,0.1537971-0.0878983,0.2025986v2.9330864h-0.5625v-5.7421875h0.5625l-0.0057983,2.2437019
			c0.0116959-0.0326996,0.044899-0.0855141,0.1014938-0.1581993c0.0567169-0.0733147,0.1318054-0.1475029,0.2266006-0.2232018
			c0.0937042-0.0756989,0.2011108-0.1421127,0.3222046-0.1987c0.1211014-0.0570984,0.2519989-0.0854988,0.3916016-0.0854988
			c0.2158966,0,0.4033966,0.0390854,0.5654984,0.1176987c0.1621017,0.0780983,0.294899,0.1820984,0.4003983,0.3115005
			c0.1044998,0.1298866,0.1836014,0.276886,0.2372971,0.4413986c0.0537033,0.1651001,0.0810013,0.3311005,0.0810013,0.4986
			v2.7948875H94.2057419z"/>
		<path class="st3" d="M98.4665451,44.8217239c0,0.1728973-0.0351944,0.3334999-0.1054993,0.4818993
			c-0.0703049,0.1484985-0.1669998,0.2763863-0.2881012,0.3843002c-0.1221008,0.1078987-0.2655869,0.1913986-0.4307022,0.2509995
			c-0.1650009,0.0590858-0.339798,0.0889015-0.5243988,0.0889015c-0.1621017,0-0.3124924-0.0108147-0.4502029-0.0323029
			c-0.1376953-0.0219002-0.2616959-0.0487976-0.3700943-0.0809975c-0.1074066-0.0326996-0.2011948-0.0650024-0.2793045-0.0972023
			c-0.0791016-0.0326996-0.139595-0.059597-0.1826019-0.0811005l0.1699066-0.4540977
			c0.0263977,0.0165977,0.0811005,0.0419998,0.1620941,0.077198c0.0811005,0.035202,0.1748047,0.0688019,0.280304,0.1016006
			c0.1054993,0.0321999,0.2177963,0.0620003,0.3368988,0.0888023c0.1192017,0.0273972,0.2276001,0.0405998,0.3252029,0.0405998
			c0.2050934,0,0.3847961-0.0591011,0.5391006-0.1783142c0.1542969-0.1180878,0.2313995-0.2831879,0.2313995-0.4935875
			c0-0.1186981-0.0478058-0.2251015-0.1416016-0.3198013c-0.0947037-0.0942993-0.2137985-0.1861-0.357399-0.2748985
			c-0.142601-0.0894012-0.2988052-0.178299-0.4658051-0.2671013c-0.1669998-0.0888977-0.3232956-0.1846123-0.4657974-0.2870979
			c-0.1435928-0.1026001-0.2627029-0.2159004-0.3574982-0.3404007c-0.0937042-0.1240005-0.1416016-0.2695007-0.1416016-0.4370003
			c0-0.1777,0.035202-0.3428001,0.106514-0.4935989c0.070282-0.1509018,0.1659927-0.2807999,0.2889938-0.3887024
			c0.1220932-0.1078987,0.261795-0.1913986,0.4179993-0.2504997c0.1562958-0.059597,0.3241959-0.0893974,0.5020065-0.0893974
			c0.1083832,0,0.2176895,0.0107994,0.3280869,0.0327988c0.1112976,0.0214005,0.2129135,0.0458984,0.3047028,0.0727005
			c0.0917969,0.0269012,0.169899,0.0551987,0.2343979,0.0849991c0.0643997,0.0298004,0.1112976,0.0555878,0.1376953,0.0770988
			l-0.1699982,0.4458008c-0.0214996-0.0214996-0.0634003-0.0487976-0.125885-0.0809975
			c-0.061615-0.0323143-0.1329117-0.0635033-0.2149124-0.0933151c-0.0800934-0.0297852-0.1660004-0.0551872-0.2548981-0.0766869
			c-0.0888062-0.0219002-0.1709061-0.0326996-0.2470016-0.0326996c-0.205101,0-0.3809052,0.0634995-0.5264053,0.1899986
			c-0.1454926,0.1268997-0.2187881,0.2959023-0.2187881,0.5058022c0,0.1191978,0.0488892,0.2294998,0.1454926,0.3320999
			c0.097702,0.1024857,0.2177963,0.1996994,0.3613968,0.2914886c0.142601,0.0918121,0.2998047,0.1821098,0.4697037,0.2709999
			c0.169899,0.08881,0.3272018,0.1845093,0.469696,0.2871094c0.1436005,0.1025009,0.26371,0.2148018,0.3614044,0.3358879
			C98.4176407,44.5346222,98.4665451,44.6708221,98.4665451,44.8217239z"/>
		<path class="st3" d="M101.9450455,45.8095245c-0.0674057,0.0321999-0.1514053,0.0643997-0.2509995,0.0966988
			c-0.0996017,0.0321999-0.2129059,0.0605011-0.3358994,0.0848999c-0.125,0.0243988-0.2539063,0.0367012-0.3897018,0.0367012
			c-0.2919998,0-0.5380936-0.0650024-0.7412033-0.1944008c-0.2031021-0.1294136-0.3661957-0.2993011-0.4911957-0.5097008
			c-0.1240005-0.2104988-0.2158051-0.4492989-0.2724991-0.7164001c-0.0566025-0.2669983-0.085907-0.5384979-0.085907-0.8134003
			c0-0.2266006,0.0391006-0.4599991,0.1143036-0.7001991c0.0761032-0.2402992,0.1826019-0.4575005,0.3211975-0.6519012
			c0.1387024-0.1942978,0.3067017-0.3549995,0.5040054-0.4813995c0.1962051-0.1269989,0.4188995-0.1904984,0.6679001-0.1904984
			c0.119194,0,0.2343979,0.0107994,0.3476944,0.032299c0.1133041,0.0219002,0.2148056,0.0472984,0.3047028,0.0770988
			c0.0887985,0.0298004,0.1640015,0.0591011,0.2265015,0.0889015c0.0625,0.0297852,0.1016006,0.0522003,0.1171951,0.0687866
			l-0.169899,0.4693146c-0.0155945-0.0161018-0.0546951-0.0391006-0.1132965-0.0689011
			c-0.0595932-0.0298004-0.1298981-0.0605011-0.2108994-0.0932007c-0.0811005-0.032299-0.1660004-0.0591011-0.2549057-0.0806007
			c-0.0888977-0.0219994-0.1718979-0.0326996-0.2470932-0.0326996c-0.1621017,0-0.3066025,0.0483017-0.4336014,0.1459999
			c-0.1268997,0.0966988-0.2333984,0.222599-0.3203049,0.3764c-0.0858994,0.153801-0.152298,0.3223-0.1981964,0.5059013
			c-0.0458984,0.1835976-0.069397,0.3617859-0.069397,0.5346985c0,0.2103996,0.0195999,0.4223022,0.056694,0.6352005
			c0.0381165,0.2134018,0.0996017,0.403801,0.1826019,0.5708008c0.0839996,0.1674995,0.1923981,0.3036995,0.3242035,0.4091988
			c0.1317978,0.1049995,0.2901001,0.1576996,0.4735947,0.1576996c0.0870056,0,0.1758041-0.0107002,0.267601-0.0321999
			c0.0918045-0.0219994,0.1797028-0.0487976,0.2637024-0.0811005c0.0839996-0.0326996,0.1592026-0.0663986,0.2266006-0.1015129
			c0.0672989-0.0351868,0.1170959-0.0658875,0.1502991-0.0932846l0.1699982,0.4774971
			C102.0573578,45.7529221,102.0124435,45.7768211,101.9450455,45.8095245z"/>
		<path class="st3" d="M105.4323578,45.9340096v-2.730999c0-0.1078873-0.0176163-0.2196884-0.0518112-0.3358879
			s-0.0840073-0.2216988-0.148407-0.3163986c-0.0644989-0.0942001-0.1455002-0.171402-0.2450943-0.2304993
			c-0.0986938-0.0595016-0.2129059-0.0893021-0.3408051-0.0893021c-0.1279984,0-0.25,0.0312004-0.3652954,0.0932007
			c-0.1152039,0.0620995-0.2168045,0.1348-0.3047028,0.2187996c-0.0887985,0.0839996-0.1590958,0.1688995-0.2128906,0.2554016
			c-0.0537109,0.0863991-0.0830002,0.1537971-0.0888062,0.2025986v2.9330864h-0.5625v-5.7421875h0.5625l-0.0049057,2.2437019
			c0.0107117-0.0326996,0.0439072-0.0855141,0.1006012-0.1581993c0.0566025-0.0733147,0.1328049-0.1475029,0.2265015-0.2232018
			c0.0938034-0.0756989,0.2012024-0.1421127,0.3223038-0.1987c0.1210938-0.0570984,0.2519989-0.0854988,0.3925934-0.0854988
			c0.2148056,0,0.4033051,0.0390854,0.5644073,0.1176987c0.1620941,0.0780983,0.2949982,0.1820984,0.4003983,0.3115005
			c0.1054993,0.1298866,0.1836014,0.276886,0.2382965,0.4413986c0.0537033,0.1651001,0.080101,0.3311005,0.080101,0.4986v2.7948875
			H105.4323578z"/>
		<path class="st3" d="M109.6628418,45.9340096v-0.5751877c-0.0166016,0.0269012-0.0527954,0.0786018-0.1093979,0.153801
			c-0.0567017,0.0756989-0.1308975,0.1513863-0.2217026,0.2271004c-0.0907974,0.0756989-0.1972961,0.142498-0.3183899,0.2006989
			c-0.1201096,0.0581017-0.2539063,0.0874023-0.398407,0.0874023c-0.2207031,0-0.410202-0.0391006-0.5684052-0.1177025
			c-0.1581879-0.0781097-0.2889938-0.1806984-0.3905945-0.3075981c-0.1025009-0.1270027-0.1777039-0.2740021-0.2255936-0.4414024
			c-0.0488052-0.1674995-0.0722046-0.3403969-0.0722046-0.5185966v-2.778801h0.5625v2.7308998
			c0,0.1240997,0.0135956,0.2441978,0.0438995,0.3603859c0.0292969,0.1162148,0.0732956,0.2187119,0.1318054,0.3081131
			c0.0585938,0.0888863,0.136795,0.1621017,0.2333908,0.2187996c0.0967026,0.0566025,0.2138977,0.0848999,0.3536148,0.0848999
			c0.1278839,0,0.2490005-0.033699,0.3612823-0.1011009c0.1123047-0.0677986,0.2119064-0.1444969,0.2978058-0.2313995
			c0.0849991-0.0858994,0.1533966-0.1728973,0.2040939-0.2588005c0.0508118-0.0868988,0.0791016-0.1459999,0.0850067-0.1786995
			v-2.9330978h0.5625v4.0702858H109.6628418z"/>
		<path class="st3" d="M112.658844,45.9872246c-0.0976028,0.0268974-0.1864929,0.0405998-0.2674866,0.0405998
			c-0.162117,0-0.2950058-0.0269012-0.3975143-0.0811005c-0.1034851-0.0537148-0.1864853-0.1254997-0.2490005-0.2144012
			c-0.0624847-0.0887985-0.1054916-0.1927986-0.1308975-0.3115005c-0.0233994-0.1185989-0.0361023-0.2430992-0.0361023-0.3724976
			v-4.8565025h0.5625153v4.8081017c0,0.1669998,0.0214844,0.3022995,0.0653839,0.4048004
			c0.0429993,0.1024971,0.115303,0.1537971,0.2188034,0.1537971c0.0370941,0,0.0858994-0.0136986,0.1455002-0.0405121
			c0.0596008-0.026886,0.0995941-0.0541878,0.1210938-0.0810852l0.1709061,0.4692993
			C112.8229446,45.9335213,112.756546,45.9604225,112.658844,45.9872246z"/>
		<path class="st3" d="M114.0749435,43.9965248c0,0.1615982,0.0205002,0.3344841,0.0605011,0.5180969
			c0.0410004,0.1831017,0.1044998,0.3544998,0.1913986,0.5135994c0.0859985,0.1592026,0.1972961,0.2911034,0.3320007,0.3965034
			c0.1347961,0.1054993,0.2968979,0.1576996,0.4863968,0.1576996c0.1133041,0,0.2246017-0.0121994,0.3358994-0.036602
			c0.110405-0.0238991,0.2129059-0.0522003,0.3076019-0.0848999c0.0948029-0.032299,0.1768036-0.0659981,0.2471008-0.1011009
			c0.0702972-0.0351982,0.1269989-0.0658989,0.169899-0.0932999l0.169899,0.4696999
			c-0.032196,0.016201-0.0877991,0.0405998-0.1660004,0.0727882c-0.0780945,0.0327148-0.1717987,0.0649147-0.2831955,0.0972137
			c-0.1113052,0.0321999-0.2342987,0.0605011-0.3730011,0.0848999c-0.1367035,0.0243988-0.2813034,0.0367012-0.4336014,0.0367012
			c-0.3183975,0-0.580101-0.0689011-0.785202-0.2066002c-0.2049942-0.1377029-0.3690948-0.315403-0.4921951-0.534214
			c-0.1220016-0.2181854-0.2070007-0.4584885-0.255806-0.7201881c-0.0487976-0.2616997-0.0741959-0.5195007-0.0741959-0.7728996
			c0-0.2001991,0.0332031-0.418499,0.0976028-0.6557999c0.0644989-0.2378006,0.1611938-0.4575005,0.2880936-0.6596985
			c0.1270065-0.2026024,0.2842178-0.3711014,0.4697037-0.5058022c0.1875076-0.1352997,0.4042969-0.2026978,0.6533966-0.2026978
			c0.2752991,0,0.5078049,0.0649986,0.6972046,0.194397c0.1894989,0.1294022,0.3417969,0.2944031,0.4580002,0.4936028
			c0.1161957,0.2001991,0.2001953,0.418499,0.2519989,0.6562996c0.0507965,0.2373009,0.0762024,0.4637871,0.0762024,0.6796989
			v0.2026024H114.0749435z M115.9128418,43.1698227c-0.035202-0.1615982-0.0888977-0.3125-0.1622009-0.4530983
			c-0.072197-0.1396027-0.1688995-0.2597122-0.2879944-0.3594017c-0.1192017-0.1001015-0.2627029-0.1498985-0.4307022-0.1498985
			c-0.1563034,0-0.294899,0.0473976-0.4131012,0.1415863c-0.1191025,0.0943108-0.2167969,0.2115135-0.2919998,0.3516121
			c-0.0762024,0.1400986-0.134697,0.2900009-0.1747971,0.4487c-0.0410004,0.1591988-0.0615005,0.3062019-0.0615005,0.4410019h1.875
			C115.9655457,43.4716225,115.9479446,43.3315239,115.9128418,43.1698227z"/>
	</g>
</g>
<path class="st0" d="M73.6608429,24.2050114c0,1.5967121-0.2284851,3.0762119-0.6854858,4.4375114
	c-0.4581146,1.3623009-1.1036148,2.5381012-1.9346161,3.5292988c-0.8290939,0.9892998-1.8407974,1.7598-3.0360947,2.3135033
	c-1.1924057,0.5536842-2.5245056,0.8290977-3.9932022,0.8290977h-5.3368988c-0.2344017,0-0.4219017-0.0732994-0.5586014-0.2206993
	c-0.1386986-0.1503983-0.2080002-0.3418007-0.2080002-0.5751991V14.8193235c0-0.2354002,0.0693016-0.4257994,0.2080002-0.5733128
	c0.1386986-0.1503868,0.3241997-0.2255869,0.5586014-0.2255869h5.3055992c1.4473,0,2.7685966,0.2451,3.9600029,0.7354002
	c1.1942978,0.4891863,2.2128983,1.1805992,3.0526962,2.0751867c0.8417969,0.8945122,1.4971008,1.9638119,1.9648972,3.2099133
	C73.4274445,21.2841244,73.6608429,22.6737232,73.6608429,24.2050114z M69.7878418,24.2050114
	c0-1.0224876-0.1279984-1.9765873-0.3828964-2.8603878c-0.2567978-0.8847008-0.635704-1.6494007-1.1367035-2.2870998
	c-0.4990005-0.6396008-1.1035004-1.1455135-1.8065948-1.5195122c-0.7041016-0.3720875-1.5028992-0.558588-2.3985062-0.558588
	h-2.3983955v15.3778992h2.2069969c0.8936157,0,1.7032013-0.2020988,2.4297028-0.607399
	c0.7256012-0.4053001,1.3487015-0.9696999,1.8711014-1.6942997c0.5214996-0.7246132,0.9218979-1.5840015,1.1991959-2.5723
	C69.649147,26.4902229,69.7878418,25.3984241,69.7878418,24.2050114z"/>
<path class="st0" d="M91.9362411,35.0937233c-0.1483994,0.1473999-0.3378906,0.2206993-0.5722961,0.2206993h-2.1963043
	c-0.2352829,0-0.4208984-0.0732994-0.5565948-0.2226982c-0.1366882-0.1483994-0.2080002-0.3398018-0.2080002-0.5741997v-8.7578011
	h-7.3731003v8.7578011c0,0.2343979-0.073204,0.4258003-0.2225876,0.5741997
	c-0.1465149,0.1493988-0.3399124,0.2226982-0.5723114,0.2226982h-2.1963043c-0.2333908,0-0.4188995-0.0732994-0.5576019-0.2206993
	c-0.1366959-0.1503983-0.2069931-0.3418007-0.2069931-0.5751991V14.8193235c0-0.2354002,0.0702972-0.4257994,0.2069931-0.5733128
	c0.1387024-0.1503868,0.3242111-0.2255869,0.5576019-0.2255869h2.1963043c0.232399,0,0.4257965,0.0752001,0.5723114,0.2255869
	c0.1493835,0.1475134,0.2225876,0.3379126,0.2225876,0.5733128v7.8172998h7.3731003v-7.8172998
	c0-0.2354002,0.071312-0.4257994,0.2080002-0.5733128c0.1356964-0.1503868,0.321312-0.2255869,0.5565948-0.2255869h2.1963043
	c0.2344055,0,0.4238968,0.0752001,0.5722961,0.2255869c0.1483994,0.1475134,0.2246017,0.3379126,0.2246017,0.5733128v19.6991997
	C92.1608429,34.7519226,92.0846405,34.943325,91.9362411,35.0937233z"/>
<path class="st3" d="M109.4538422,29.185524c0,0.9569988-0.1933975,1.8183002-0.5762024,2.5848999
	c-0.3827972,0.7665863-0.9091949,1.4111977-1.5819931,1.9345856c-0.6690063,0.5186119-1.4512024,0.9189148-2.3448029,1.1973152
	c-0.893486,0.2753983-1.8417969,0.4120979-2.8407974,0.4120979h-4.8866959c-0.1494064,0-0.2773056-0.0527992-0.3828049-0.1562996
	c-0.107399-0.107399-0.1611023-0.2363014-0.1611023-0.3838005V14.533124c0-0.1494007,0.0537033-0.2715006,0.1611023-0.369113
	c0.1054993-0.0956869,0.2333984-0.1435871,0.3828049-0.1435871h5.2724915c0.8320007,0,1.635704,0.1075001,2.413002,0.3183994
	c0.7773972,0.2129002,1.4599991,0.54,2.0458984,0.9746008c0.5878983,0.4364996,1.052803,0.9901991,1.4063034,1.6610994
	c0.3525009,0.6679993,0.5273056,1.4610004,0.5273056,2.3770008c0,0.5731983-0.1298065,1.1220989-0.3847122,1.6444855
	c-0.2558975,0.5195141-0.5761948,0.9883137-0.9599991,1.4024143c-0.3847961,0.4159985-0.8065948,0.7665863-1.2655945,1.0527
	c-0.4589996,0.2880993-0.9014053,0.4960995-1.3272018,0.6229992c0.5927963,0.1065006,1.1651001,0.3038006,1.7061005,0.5918007
	c0.5429993,0.2880859,1.0224991,0.6533985,1.4384995,1.1015987c0.4131012,0.4463005,0.743103,0.9619007,0.9882965,1.5488014
	C109.3288422,27.9003239,109.4538422,28.5243225,109.4538422,29.185524z M106.5182419,19.4413242
	c0-1.0848999-0.3730011-1.9472008-1.1191025-2.5848999c-0.7480927-0.637701-1.7167816-0.9561005-2.9111938-0.9561005h-3.4832993
	v7.3701h3.3885956c0.5322037,0,1.0439987-0.0937004,1.5362015-0.2861004c0.4881973-0.1924,0.9247971-0.4580002,1.3085022-0.7987995
	c0.3837967-0.3388996,0.6924057-0.7441998,0.9287949-1.2119007
	C106.3991394,20.5068245,106.5182419,19.9950104,106.5182419,19.4413242z M107.033844,29.0937233
	c0-1.2353992-0.4217987-2.2089996-1.2617035-2.9209003c-0.8436966-0.7138996-1.9365005-1.0702991-3.2811966-1.0702991h-3.4862976
	v8.3358994h3.4862976c0.618103,0,1.205101-0.106411,1.759697-0.3213005c0.5547104-0.2118988,1.0401001-0.5098,1.455101-0.8934975
	c0.4169998-0.3829021,0.7412033-0.839901,0.9746094-1.3711014C106.9176407,30.3193226,107.033844,29.7333241,107.033844,29.0937233z
	"/>
<path class="st3" d="M128.3620453,34.7734222c-0.0420074,0.1473999-0.1172028,0.2773018-0.2236938,0.3847008
	c-0.1074066,0.1035004-0.2334061,0.1562996-0.3837051,0.1562996h-1.5967026c-0.1474991,0-0.2832031-0.0527992-0.3993988-0.1562996
	c-0.1171875-0.107399-0.1963043-0.2373009-0.240303-0.3847008l-3.5292969-17.8486977l-3.4687042,17.8486977
	c-0.0419998,0.1473999-0.1221008,0.2773018-0.2382965,0.3847008c-0.1172028,0.1035004-0.2519989,0.1562996-0.4003983,0.1562996
	h-1.5967026c-0.1473999,0-0.2812042-0.0527992-0.3983994-0.1562996c-0.1182022-0.107399-0.1973038-0.2373009-0.2402039-0.3847008
	l-4.0986938-20.2431984c-0.0419998-0.1484003-0.0156021-0.2715006,0.0790939-0.3672132
	c0.0977173-0.0946865,0.2207108-0.1425867,0.3692017-0.1425867h1.3407974c0.3398056,0,0.5537186,0.1700001,0.6387177,0.5098
	l3.2040863,17.8798981l3.4676971-17.8798981c0.0839996-0.3397999,0.297905-0.5098,0.6377029-0.5098h1.5967026
	c0.3222961,0,0.5224991,0.1700001,0.6083984,0.5098l3.4971008,17.8798981l3.1737976-17.8798981
	c0.0850067-0.3397999,0.2870941-0.5098,0.6074066-0.5098h1.2773895c0.1473999,0,0.2636108,0.0479002,0.3515015,0.1425867
	c0.0850067,0.0957127,0.1074982,0.2188129,0.0635071,0.3672132L128.3620453,34.7734222z"/>
<g>
	<path class="st3" d="M57.9401436,65.4946213v-5.4062996h0.9531021v5.4062996H57.9401436z M60.686245,65.4946213l-1.7826996-2.8125
		l1.7176971-2.5937996h1.0855026l-1.8145027,2.528801l2.0088005,2.8774986H60.686245z"/>
	<path class="st3" d="M64.7521439,65.4946213l0.001503-0.5538025c-0.0161057,0.0381012-0.0567017,0.0932999-0.1216049,0.1661072
		c-0.0648956,0.0726929-0.1449966,0.1444931-0.239296,0.2142944c-0.0947037,0.0703049-0.2046051,0.1323013-0.3286057,0.1860046
		c-0.1244965,0.0541992-0.2567863,0.0811005-0.3973961,0.0811005c-0.4053001,0-0.7216988-0.1050034-0.9492989-0.3159027
		c-0.2265015-0.2099991-0.3403015-0.4854126-0.3403015-0.8256989c0-0.1830978,0.0498009-0.3521042,0.1498985-0.5059013
		c0.1001015-0.1538124,0.2300034-0.2915001,0.3897018-0.4126015c0.1590996-0.1214981,0.3348999-0.222599,0.5267982-0.3036995
		c0.1919022-0.0809975,0.3799019-0.1400986,0.564003-0.1781998l0.7054977-0.1455002v-0.1538124
		c0-0.1942863-0.0619965-0.3656883-0.1865005-0.5141869c-0.1240005-0.1483994-0.3105011-0.222599-0.5585976-0.222599
		c-0.0923004,0-0.1919022,0.016098-0.2998009,0.0482979c-0.1078987,0.0326996-0.2123985,0.0718002-0.3120003,0.1177025
		c-0.1001015,0.0458984-0.1875,0.0902977-0.2631989,0.1337852c-0.0757027,0.0429153-0.1268997,0.0727119-0.153801,0.0888138
		l-0.2997894-0.6635017c0.0268898-0.0165977,0.0873909-0.0458984,0.1820908-0.0893974
		c0.0942993-0.0429993,0.2094994-0.0874023,0.3442993-0.1333008c0.1347008-0.0458984,0.2860985-0.0879021,0.4536095-0.1254997
		c0.1674881-0.0376015,0.3402901-0.0565987,0.5185928-0.0565987c0.4427948,0,0.7954102,0.1200981,1.0570984,0.3607979
		c0.2621994,0.2402992,0.3929977,0.5708008,0.3929977,0.9921989v2.8111H64.7521439z M64.7130432,63.5234222l-0.5361023,0.1211014
		c-0.1138,0.027298-0.2245865,0.0653992-0.3329964,0.1136971c-0.1078987,0.0484009-0.2041016,0.1055031-0.2881012,0.1699028
		c-0.0839996,0.0649986-0.1517982,0.1362991-0.2030983,0.2148895c-0.0513,0.0786133-0.0772018,0.1577072-0.0772018,0.2388077
		c0,0.1679001,0.0567017,0.2973022,0.1705017,0.3890991c0.1137009,0.0918045,0.2435989,0.1377029,0.3900986,0.1377029
		c0.1025009,0,0.2041016-0.0229034,0.3042145-0.0688019c0.1000824-0.0458984,0.1893845-0.1039963,0.2680893-0.1744003
		c0.078598-0.0698013,0.1449966-0.1455002,0.1991959-0.2265015c0.0541992-0.0810928,0.0893021-0.1567993,0.1054001-0.2270966
		V63.5234222z"/>
	<path class="st3" d="M69.0075455,62.2963219c-0.0381012-0.0214996-0.0918045-0.0498009-0.1621017-0.0849991
		c-0.0702972-0.035099-0.1269989-0.0527-0.1699982-0.0527c-0.1137009,0-0.216301,0.025898-0.3080902,0.0766983
		c-0.0918121,0.0516891-0.1713104,0.1123009-0.239212,0.1826019c-0.0673981,0.0703011-0.1225967,0.1415977-0.1660004,0.2142982
		c-0.0429993,0.0727882-0.0673981,0.1285019-0.0727921,0.1660995v2.6963005h-0.9062042V61.424221h0.8672104l-0.0015106,0.5557022
		c0.016098-0.0321999,0.0487976-0.0834999,0.0971985-0.153801c0.0487976-0.0703011,0.1131973-0.142601,0.194313-0.2153015
		c0.0809937-0.0732994,0.1767883-0.1381989,0.2875824-0.1948967c0.1108017-0.0571022,0.2363052-0.0853996,0.3769073-0.0853996
		c0.0865097,0,0.1835938,0.0189972,0.2915039,0.0570984c0.1080017,0.0376015,0.1782913,0.0727997,0.2110062,0.1054993
		L69.0075455,62.2963219z"/>
	<path class="st3" d="M71.7087402,65.5278244c-0.131897,0.0404968-0.2631989,0.0605011-0.3925934,0.0605011
		c-0.2105026,0-0.3819046-0.0337067-0.5137024-0.1011047c-0.1323013-0.0673981-0.2372971-0.1552124-0.3153992-0.2632065
		c-0.078598-0.1078949-0.1324005-0.2318954-0.1621017-0.3724899c-0.0298004-0.1402054-0.0445023-0.280304-0.0445023-0.4208984
		v-4.6782036h0.9141006v4.6298027c0,0.1352997,0.0146027,0.2426987,0.0444031,0.3237839
		c0.0298004,0.0810013,0.0849991,0.1216125,0.1660004,0.1216125c0.0327988,0,0.080101-0.0147018,0.1420975-0.0445023
		c0.0620041-0.0298004,0.1064987-0.0604935,0.1333084-0.0931931l0.3080902,0.7367935
		C71.9342422,65.4535217,71.8415451,65.4872208,71.7087402,65.5278244z"/>
	<path class="st3" d="M75.4557419,64.2773209c0,0.1776886-0.0365982,0.3466034-0.1093903,0.5057983
		c-0.0727081,0.1592026-0.175209,0.2978897-0.307106,0.4169998c-0.1323013,0.1182022-0.2900009,0.2128906-0.4736023,0.2832031
		c-0.1830978,0.0698013-0.3858032,0.1050034-0.6069031,0.1050034c-0.1728973,0-0.3364944-0.0121994-0.4902954-0.0366058
		c-0.1543045-0.0243988-0.2929993-0.0527954-0.4175034-0.0849991c-0.1244965-0.032196-0.2337952-0.0673981-0.3280945-0.1049957
		c-0.0942001-0.0376053-0.1688995-0.0727158-0.2226028-0.1049042l0.2997971-0.7045975
		c0.0322037,0.0214996,0.0888062,0.0526962,0.169899,0.0932007c0.0810013,0.0405884,0.1767044,0.0795898,0.2876053,0.1171951
		c0.1108093,0.0381012,0.2265015,0.0718002,0.3485947,0.1016006c0.1211014,0.0297928,0.2363052,0.0444031,0.3443069,0.0444031
		c0.1615982,0,0.3006973-0.0429993,0.4169083-0.1294022c0.1162872-0.0863953,0.1743851-0.2025986,0.1743851-0.3480988
		c0-0.0865021-0.0473862-0.1685028-0.1420975-0.2471085c-0.0942917-0.0780945-0.2118988-0.1591873-0.3526001-0.242691
		c-0.1406021-0.0839996-0.294899-0.169899-0.4624023-0.259201c-0.1679001-0.0888977-0.3216934-0.1861115-0.4623947-0.2915993
		c-0.1406021-0.1049004-0.2583008-0.2182007-0.3530045-0.339798c-0.0942001-0.1211014-0.1415939-0.2549019-0.1415939-0.4004021
		c0-0.1889992,0.0375977-0.3642006,0.1132965-0.5263977c0.0756989-0.1621017,0.1797028-0.3007011,0.3119965-0.4169121
		c0.1323013-0.116291,0.2886047-0.2080879,0.4697037-0.2753906c0.1811981-0.0673981,0.3740005-0.1010971,0.5791016-0.1010971
		c0.1298981,0,0.2554016,0.0106964,0.3769989,0.0326996c0.1216125,0.0214996,0.2333984,0.0482979,0.3364029,0.0805969
		c0.1024933,0.0327034,0.192894,0.0664024,0.2709961,0.1010017c0.078598,0.0351868,0.1362076,0.0663986,0.1743011,0.0932999
		l-0.2997971,0.6806984c-0.0215073-0.0219994-0.0635071-0.0502968-0.1255035-0.0854988
		c-0.0619965-0.035099-0.1337891-0.0698013-0.2147903-0.1049995c-0.0811081-0.035099-0.167511-0.0658989-0.2593079-0.0932007
		c-0.0918045-0.0269012-0.1806946-0.0405006-0.2671051-0.0405006c-0.1840973,0-0.327095,0.0512009-0.4296951,0.153801
		c-0.1025009,0.1025009-0.153801,0.2294998-0.153801,0.3802986c0,0.0811005,0.0487976,0.1621017,0.1459961,0.2427025
		c0.0972061,0.0811005,0.2173004,0.1635857,0.3608017,0.2471008c0.1431122,0.0834846,0.2984009,0.169899,0.4659042,0.2587967
		c0.1673965,0.0893021,0.3227005,0.1850014,0.4657974,0.2876015c0.1435013,0.1025009,0.2637024,0.2118988,0.3608017,0.3275986
		C75.4069443,64.0087204,75.4557419,64.1366196,75.4557419,64.2773209z"/>
	<path class="st3" d="M78.6222458,62.2963219c-0.0381012-0.0214996-0.0923004-0.0498009-0.1621017-0.0849991
		c-0.0702972-0.035099-0.1268997-0.0527-0.1704025-0.0527c-0.1132965,0-0.2157974,0.025898-0.3075943,0.0766983
		c-0.0917892,0.0516891-0.1719055,0.1123009-0.2393036,0.1826019s-0.1224899,0.1415977-0.1660004,0.2142982
		c-0.0429993,0.0727882-0.0673981,0.1285019-0.0727005,0.1660995v2.6963005H76.597847V61.424221h0.8671951l-0.0014954,0.5557022
		c0.016098-0.0321999,0.0488968-0.0834999,0.0971985-0.153801c0.0487976-0.0703011,0.1132965-0.142601,0.1942978-0.2153015
		c0.0811005-0.0732994,0.1773148-0.1381989,0.2875977-0.1948967c0.1109009-0.0571022,0.2364044-0.0853996,0.3770065-0.0853996
		c0.0863953,0,0.1835938,0.0189972,0.2914963,0.0570984c0.1079025,0.0376015,0.1782074,0.0727997,0.2104034,0.1054993
		L78.6222458,62.2963219z"/>
	<path class="st3" d="M82.19944,65.4946213v-0.551796c-0.0219955,0.0375977-0.0619965,0.0917969-0.1215973,0.1615982
		s-0.1327972,0.141098-0.2192001,0.2138977c-0.0865021,0.0722046-0.1865997,0.1356888-0.3002853,0.1893997
		c-0.1133118,0.0537033-0.2349167,0.0806046-0.3648148,0.0806046c-0.2435989,0-0.4487-0.0419998-0.6166992-0.1255035
		c-0.1674881-0.0839996-0.3041992-0.1932983-0.4096985-0.3281021c-0.1054001-0.1347961-0.1810989-0.2901001-0.2269974-0.4657974
		c-0.0459061-0.1757965-0.0689011-0.3579102-0.0689011-0.5469131V61.424221h0.9062958v2.6597023
		c0,0.0810852,0.0093002,0.1660004,0.0283051,0.2554016c0.0190964,0.0892944,0.050293,0.1713943,0.0937958,0.2474976
		c0.0434036,0.0751877,0.1044998,0.1377029,0.1830978,0.1865997c0.0786133,0.0483017,0.1748047,0.0727005,0.2885056,0.0727005
		c0.1031113,0,0.2006989-0.0282974,0.2929993-0.0848999c0.0923004-0.0572128,0.1747971-0.1246033,0.2481079-0.2026978
		c0.0731888-0.0786057,0.1312866-0.1557007,0.1747894-0.2313995c0.0434036-0.0757065,0.0678024-0.1324005,0.0732117-0.1700058
		V61.424221h0.9062881v4.0704002H82.19944z"/>
	<path class="st3" d="M86.8151398,65.4946213v-2.6596985c0-0.0863991-0.0116959-0.1758003-0.0370941-0.267601
		c-0.0243988-0.0918007-0.0625-0.1743126-0.1143036-0.2471008c-0.0516968-0.0732117-0.1161957-0.1327972-0.1962967-0.1786995
		c-0.0780945-0.0458984-0.169899-0.0687981-0.2733994-0.0687981c-0.1084061,0-0.2108994,0.025898-0.3056946,0.0770988
		c-0.0957108,0.0513-0.1806107,0.1133003-0.2529068,0.1865005c-0.0742035,0.0727997-0.1338043,0.1484985-0.1797028,0.2271004
		c-0.0468979,0.0780983-0.072197,0.1445007-0.0781021,0.1982002v2.7329979h-0.9062881v-5.7421989h0.9062881l0.0039063,2.223587
		c0.0155945-0.0321884,0.0508118-0.0849991,0.1054993-0.1576881c0.0546951-0.0723114,0.125-0.1450005,0.2108994-0.2178001
		c0.0868988-0.0723,0.1875-0.1357002,0.3007965-0.1893997c0.1133041-0.0537987,0.2363052-0.0805969,0.3652039-0.0805969
		c0.25,0,0.4609985,0.0443993,0.6347961,0.1337967c0.1728058,0.0888023,0.3134995,0.2036018,0.4219055,0.3442001
		c0.1083984,0.1406021,0.1854935,0.2944031,0.2313995,0.4619026c0.0458984,0.1674995,0.0693054,0.3290977,0.0693054,0.4858971
		v2.7383003H86.8151398z"/>
	<path class="st3" d="M89.783844,63.6586227c0,0.1343002,0.0195999,0.2729988,0.0567017,0.4154968
		c0.0381012,0.142601,0.0956955,0.2735062,0.1748123,0.3916016c0.0780869,0.1182022,0.1767883,0.2168045,0.2958832,0.2949982
		c0.1191101,0.0776062,0.2588043,0.1167068,0.4209061,0.1167068c0.1190948,0,0.2352982-0.0137024,0.3485947-0.0406036
		c0.1133041-0.027298,0.2168045-0.0586014,0.3115005-0.0936966c0.0948029-0.035202,0.1788025-0.0727997,0.2509995-0.1133041
		c0.0733032-0.0410004,0.1288986-0.0775986,0.1660004-0.1099014l0.3086014,0.7364044
		c-0.0429001,0.0218964-0.1112976,0.0512009-0.2031021,0.0892944c-0.0917969,0.0376053-0.202095,0.0742035-0.3320007,0.1093903
		c-0.1288986,0.0352097-0.2734985,0.0659103-0.4335938,0.0928116c-0.1592026,0.0268021-0.3252029,0.0405045-0.4981003,0.0405045
		c-0.3563995,0-0.6494064-0.0703125-0.8789063-0.2104034c-0.2294998-0.1401978-0.4081955-0.3199081-0.5380936-0.5381012
		c-0.1298065-0.218811-0.219696-0.4599991-0.2714005-0.7246017c-0.0508041-0.264698-0.0772018-0.5180969-0.0772018-0.7607956
		c0-0.1943016,0.035202-0.4101028,0.1054993-0.6478996c0.0702972-0.2373009,0.1757965-0.4570999,0.3164139-0.6597023
		c0.1395874-0.202198,0.3153839-0.3721008,0.525383-0.5098114c0.2108994-0.1376877,0.4541016-0.2064857,0.7294998-0.2064857
		c0.318306,0,0.5830002,0.0717964,0.7938995,0.214798c0.2110062,0.1436005,0.3789063,0.3179016,0.5059052,0.5234985
		c0.1268997,0.2055016,0.2167969,0.4258003,0.267601,0.6611023c0.050705,0.2354012,0.077095,0.4447975,0.077095,0.6283989v0.3003006
		H89.783844z M91.290741,62.7568207c-0.032196-0.1191978-0.0790939-0.2338982-0.1415939-0.3448105
		c-0.0625-0.1107864-0.1406021-0.2054863-0.235405-0.2840881c-0.094696-0.0782013-0.2060013-0.1176987-0.3358994-0.1176987
		s-0.2432022,0.0365982-0.3407974,0.109787c-0.0966873,0.0728111-0.1758041,0.1621132-0.2383041,0.2676125
		s-0.1093903,0.2192993-0.142601,0.3408012c-0.0311966,0.1215858-0.0507889,0.2314987-0.0565948,0.3286972h1.5478058
		C91.3424454,62.9760094,91.3229446,62.8759232,91.290741,62.7568207z"/>
</g>
</svg>
